<?xml version="1.0" encoding="utf-8"?>
<!-- Generator: Adobe Illustrator 24.3.0, SVG Export Plug-In . SVG Version: 6.00 Build 0)  -->
<svg version="1.1" id="Calque_1" xmlns="http://www.w3.org/2000/svg" xmlns:xlink="http://www.w3.org/1999/xlink" x="0px" y="0px"
	 viewBox="0 0 106 106" style="enable-background:new 0 0 106 106;" xml:space="preserve">
<style type="text/css">
	.st0{fill-rule:evenodd;clip-rule:evenodd;fill:#4AC25B;}
	.st1{fill-rule:evenodd;clip-rule:evenodd;fill:#FFFFFF;}
</style>
<circle class="st0" cx="53" cy="53" r="38"/>
<g>
	<path class="st1" d="M62.9,57.1c-0.5-0.3-3-1.6-3.5-1.8s-0.8-0.3-1.2,0.2s-1.4,1.7-1.7,2c-0.3,0.3-0.6,0.4-1.1,0.1
		c-0.5-0.3-2.2-0.9-4.1-2.8c-1.5-1.4-2.5-3.2-2.8-3.7c-0.3-0.5,0-0.8,0.3-1.1c0.2-0.2,0.5-0.6,0.8-0.9c0.3-0.3,0.4-0.5,0.6-0.9
		c0.2-0.3,0.1-0.7,0-0.9c-0.1-0.3-1.1-2.9-1.5-4s-0.8-0.9-1.1-0.9c-0.3,0-0.7-0.1-1-0.1c-0.4,0-0.9,0.1-1.4,0.6s-1.9,1.7-2,4.3
		s1.7,5.1,1.9,5.5c0.2,0.4,3.4,6,8.7,8.3c5.3,2.3,5.3,1.6,6.2,1.5c1-0.1,3.2-1.2,3.6-2.4c0.5-1.2,0.5-2.3,0.4-2.5
		C63.8,57.6,63.4,57.4,62.9,57.1L62.9,57.1z M53.3,69.6c-3.5,0-6.7-1-9.4-2.8l-6.6,2.1l2.1-6.4c-2-2.8-3.3-6.3-3.3-10
		c0-9.4,7.7-17.1,17.1-17.1s17.1,7.7,17.1,17.1C70.4,61.9,62.8,69.6,53.3,69.6L53.3,69.6z M53.3,31.9c-11.4,0-20.6,9.2-20.6,20.6
		c0,3.9,1.1,7.5,3,10.6l-3.7,11l11.4-3.6c2.9,1.6,6.3,2.6,9.9,2.6c11.4,0,20.6-9.2,20.6-20.6C73.8,41.1,64.6,31.9,53.3,31.9
		L53.3,31.9z"/>
</g>
</svg>
